<svg width="21" height="22" viewBox="0 0 21 22" fill="none" xmlns="http://www.w3.org/2000/svg">
<path d="M9.37513 11C9.37513 11.2984 9.49366 11.5845 9.70464 11.7955C9.91562 12.0065 10.2018 12.125 10.5001 12.125C10.7985 12.125 11.0846 12.0065 11.2956 11.7955C11.5066 11.5845 11.6251 11.2984 11.6251 11C11.6251 10.7016 11.5066 10.4155 11.2956 10.2045C11.0846 9.99353 10.7985 9.875 10.5001 9.875C10.2018 9.875 9.91562 9.99353 9.70464 10.2045C9.49366 10.4155 9.37513 10.7016 9.37513 11ZM14.0626 11C14.0626 11.2984 14.1812 11.5845 14.3921 11.7955C14.6031 12.0065 14.8893 12.125 15.1876 12.125C15.486 12.125 15.7721 12.0065 15.9831 11.7955C16.1941 11.5845 16.3126 11.2984 16.3126 11C16.3126 10.7016 16.1941 10.4155 15.9831 10.2045C15.7721 9.99353 15.486 9.875 15.1876 9.875C14.8893 9.875 14.6031 9.99353 14.3921 10.2045C14.1812 10.4155 14.0626 10.7016 14.0626 11ZM4.68763 11C4.68763 11.2984 4.80616 11.5845 5.01714 11.7955C5.22812 12.0065 5.51426 12.125 5.81263 12.125C6.111 12.125 6.39715 12.0065 6.60813 11.7955C6.81911 11.5845 6.93763 11.2984 6.93763 11C6.93763 10.7016 6.81911 10.4155 6.60813 10.2045C6.39715 9.99353 6.111 9.875 5.81263 9.875C5.51426 9.875 5.22812 9.99353 5.01714 10.2045C4.80616 10.4155 4.68763 10.7016 4.68763 11ZM20.1845 6.93125C19.6548 5.67266 18.8954 4.54297 17.9275 3.57266C16.9663 2.60796 15.8252 1.84114 14.5689 1.31563C13.2798 0.774219 11.9111 0.5 10.5001 0.5H10.4533C9.03295 0.507031 7.65716 0.788281 6.36341 1.34141C5.11785 1.87232 3.98747 2.64049 3.03529 3.60312C2.0767 4.57109 1.32435 5.69609 0.804039 6.95C0.264977 8.24844 -0.00689828 9.62891 0.000132967 11.0492C0.0080859 12.6769 0.393161 14.2806 1.12513 15.7344V19.2969C1.12513 19.5828 1.23872 19.857 1.44091 20.0592C1.6431 20.2614 1.91732 20.375 2.20326 20.375H5.7681C7.22192 21.107 8.82559 21.492 10.4533 21.5H10.5025C11.9064 21.5 13.2681 21.2281 14.5501 20.6961C15.8001 20.1768 16.9369 19.419 17.897 18.4648C18.865 17.5063 19.6267 16.3859 20.1587 15.1367C20.7119 13.843 20.9931 12.4672 21.0001 11.0469C21.0072 9.61953 20.7306 8.23438 20.1845 6.93125ZM16.6431 17.1969C15.0001 18.8234 12.8204 19.7188 10.5001 19.7188H10.4603C9.04701 19.7117 7.6431 19.3602 6.40326 18.6992L6.20638 18.5938H2.90638V15.2938L2.80091 15.0969C2.13998 13.857 1.78841 12.4531 1.78138 11.0398C1.77201 8.70312 2.66498 6.50937 4.30326 4.85703C5.9392 3.20469 8.12591 2.29062 10.4626 2.28125H10.5025C11.6744 2.28125 12.8111 2.50859 13.8822 2.95859C14.9275 3.39687 15.865 4.02734 16.6712 4.83359C17.4751 5.6375 18.1079 6.57734 18.5462 7.62266C19.0009 8.70547 19.2283 9.85391 19.2236 11.0398C19.2095 13.3742 18.2931 15.5609 16.6431 17.1969Z" fill="#8C8C8C"/>
</svg>
