<svg width="19" height="20" viewBox="0 0 19 20" fill="none" xmlns="http://www.w3.org/2000/svg">
<path d="M18.4367 4.87422L14.6257 1.06328C14.4499 0.8875 14.2343 0.758594 13.9999 0.688281V0.625H0.874939C0.460095 0.625 0.124939 0.960156 0.124939 1.375V18.625C0.124939 19.0398 0.460095 19.375 0.874939 19.375H18.1249C18.5398 19.375 18.8749 19.0398 18.8749 18.625V5.93359C18.8749 5.53516 18.7179 5.15547 18.4367 4.87422ZM6.49994 2.3125H12.4999V4.75H6.49994V2.3125ZM17.1874 17.6875H1.81244V2.3125H4.99994V5.5C4.99994 5.91484 5.3351 6.25 5.74994 6.25H13.2499C13.6648 6.25 13.9999 5.91484 13.9999 5.5V2.82344L17.1874 6.01094V17.6875ZM9.49994 8.35938C7.63666 8.35938 6.12494 9.87109 6.12494 11.7344C6.12494 13.5977 7.63666 15.1094 9.49994 15.1094C11.3632 15.1094 12.8749 13.5977 12.8749 11.7344C12.8749 9.87109 11.3632 8.35938 9.49994 8.35938ZM9.49994 13.6094C8.464 13.6094 7.62494 12.7703 7.62494 11.7344C7.62494 10.6984 8.464 9.85938 9.49994 9.85938C10.5359 9.85938 11.3749 10.6984 11.3749 11.7344C11.3749 12.7703 10.5359 13.6094 9.49994 13.6094Z" fill="#8C8C8C"/>
</svg>
