<svg width="17" height="20" viewBox="0 0 17 20" fill="none" xmlns="http://www.w3.org/2000/svg">
<path d="M14.1249 13.5625C13.457 13.5625 12.8406 13.7969 12.3578 14.1883L7.5015 10.675C7.58282 10.2287 7.58282 9.77133 7.5015 9.325L12.3578 5.81172C12.8406 6.20312 13.457 6.4375 14.1249 6.4375C15.6765 6.4375 16.9374 5.17656 16.9374 3.625C16.9374 2.07344 15.6765 0.8125 14.1249 0.8125C12.5734 0.8125 11.3124 2.07344 11.3124 3.625C11.3124 3.89687 11.3499 4.15703 11.4226 4.40547L6.81009 7.74531C6.12572 6.83828 5.03822 6.25 3.81244 6.25C1.74056 6.25 0.062439 7.92812 0.062439 10C0.062439 12.0719 1.74056 13.75 3.81244 13.75C5.03822 13.75 6.12572 13.1617 6.81009 12.2547L11.4226 15.5945C11.3499 15.843 11.3124 16.1055 11.3124 16.375C11.3124 17.9266 12.5734 19.1875 14.1249 19.1875C15.6765 19.1875 16.9374 17.9266 16.9374 16.375C16.9374 14.8234 15.6765 13.5625 14.1249 13.5625ZM14.1249 2.40625C14.7976 2.40625 15.3437 2.95234 15.3437 3.625C15.3437 4.29766 14.7976 4.84375 14.1249 4.84375C13.4523 4.84375 12.9062 4.29766 12.9062 3.625C12.9062 2.95234 13.4523 2.40625 14.1249 2.40625ZM3.81244 12.0625C2.67572 12.0625 1.74994 11.1367 1.74994 10C1.74994 8.86328 2.67572 7.9375 3.81244 7.9375C4.94916 7.9375 5.87494 8.86328 5.87494 10C5.87494 11.1367 4.94916 12.0625 3.81244 12.0625ZM14.1249 17.5938C13.4523 17.5938 12.9062 17.0477 12.9062 16.375C12.9062 15.7023 13.4523 15.1562 14.1249 15.1562C14.7976 15.1562 15.3437 15.7023 15.3437 16.375C15.3437 17.0477 14.7976 17.5938 14.1249 17.5938Z" fill="#8C8C8C"/>
</svg>
